<svg width="241" height="32" viewBox="0 0 241 32" fill="none" xmlns="http://www.w3.org/2000/svg">
<path d="M0 0L7 0.5L4.5 6.5L0 0Z" fill="#6E7D60"/>
<path d="M3.85077 12L8 1" stroke="#6E7D60" stroke-width="1.33" stroke-linecap="round"/>
<circle r="2.26037" transform="matrix(-1 0 0 1 12.1269 6.42537)" stroke="#6E7D60" stroke-width="1.33"/>
<path d="M19.0746 11.9103C19.8369 12.4842 20.5289 13.1649 21.0483 13.7253C21.6042 14.325 21.5043 15.2488 20.8761 15.7723C20.27 16.2773 19.3788 16.2369 18.8209 15.679L18.0326 14.8907C17.7554 14.6135 17.422 14.3988 17.0549 14.2612L15.5943 13.7134C15.215 13.5712 14.8338 13.9178 14.9395 14.3089L17.8572 25.1044C18.1278 26.1055 17.5522 27.1402 16.5588 27.4382C15.5311 27.7465 14.4506 27.1504 14.1634 26.1165L12.9443 21.7276C12.901 21.5718 12.7212 21.5 12.5825 21.5832L12.1009 21.8722C11.4097 22.2869 10.8898 22.9351 10.6349 23.6997L10.1208 25.2418C9.81506 26.1592 8.82349 26.655 7.90612 26.3492C7.00096 26.0475 6.50402 25.0766 6.78861 24.1659L7.57091 21.6625C7.91316 20.5673 8.66757 19.648 9.6749 19.0985L11.7688 17.9564C11.9787 17.8419 12.0825 17.5982 12.0195 17.3676L11.1573 14.206C11.0905 13.961 10.8201 13.834 10.5889 13.9391L8.366 14.9495C7.5067 15.3401 6.51697 15.3218 5.67271 14.8997L4.3833 14.255C3.7846 13.9556 3.484 13.2723 3.66789 12.6287C3.89105 11.8476 4.7332 11.4232 5.49379 11.7084L6.21042 11.9771C6.72153 12.1688 7.28723 12.1536 7.78734 11.9348L10.415 10.7852C12.0107 10.0871 13.7831 9.82592 15.4573 10.3062C16.6967 10.6617 18.1147 11.1877 19.0746 11.9103Z" stroke="#6E7D60" stroke-width="1.33"/>
<path d="M154.602 11.4141C155.154 11.4141 155.602 11.8618 155.602 12.4141V12.8555C155.602 13.4078 155.154 13.8555 154.602 13.8555H152.422C151.87 13.8555 151.422 14.3032 151.422 14.8555V23.4414C151.422 23.9937 150.974 24.4414 150.422 24.4414H149.727C149.174 24.4414 148.727 23.9937 148.727 23.4414V14.8555C148.727 14.3032 148.279 13.8555 147.727 13.8555H145.547C144.995 13.8555 144.547 13.4078 144.547 12.8555V12.4141C144.547 11.8618 144.995 11.4141 145.547 11.4141H154.602Z" fill="#6E7D60"/>
<path d="M163.559 14.3828C164.092 14.3828 164.633 14.5065 165.18 14.7539C165.461 14.8813 165.719 15.0312 165.952 15.2035C166.178 15.3703 166.547 15.2215 166.547 14.9408C166.547 14.7728 166.683 14.6367 166.851 14.6367H168.027C168.58 14.6367 169.027 15.0844 169.027 15.6367V23.5C169.027 24.0523 168.58 24.5 168.027 24.5H166.88C166.696 24.5 166.547 24.3507 166.547 24.1665C166.547 23.8199 165.987 23.6438 165.73 23.8773C165.596 23.9995 165.452 24.1159 165.297 24.2266C164.75 24.6042 164.112 24.793 163.383 24.793C162.589 24.793 161.853 24.5911 161.176 24.1875C160.512 23.7839 159.978 23.1979 159.574 22.4297C159.171 21.6615 158.969 20.7305 158.969 19.6367C158.969 18.543 159.171 17.6055 159.574 16.8242C159.991 16.043 160.544 15.444 161.234 15.0273C161.938 14.5977 162.712 14.3828 163.559 14.3828ZM164.066 16.8047C163.546 16.8047 163.096 16.9414 162.719 17.2148C162.354 17.4753 162.068 17.8203 161.859 18.25C161.651 18.6797 161.547 19.1419 161.547 19.6367C161.547 20.3789 161.768 21.0104 162.211 21.5312C162.667 22.0521 163.266 22.3125 164.008 22.3125C164.451 22.3125 164.861 22.1953 165.238 21.9609C165.629 21.7266 165.941 21.401 166.176 20.9844C166.423 20.5547 166.547 20.0404 166.547 19.4414V18.4286C166.547 18.1757 166.454 17.9287 166.268 17.758C165.995 17.508 165.703 17.3009 165.395 17.1367C164.991 16.9154 164.548 16.8047 164.066 16.8047Z" fill="#6E7D60"/>
<path d="M176.145 9.5C176.613 9.5 177.017 9.66927 177.355 10.0078C177.694 10.3333 177.863 10.724 177.863 11.1797C177.863 11.6224 177.694 12.013 177.355 12.3516C177.017 12.6901 176.613 12.8594 176.145 12.8594C175.676 12.8594 175.272 12.6901 174.934 12.3516C174.608 12.013 174.445 11.6224 174.445 11.1797C174.445 10.724 174.608 10.3333 174.934 10.0078C175.272 9.66927 175.676 9.5 176.145 9.5ZM176.59 14.6367C177.142 14.6367 177.59 15.0844 177.59 15.6367V23.5C177.59 24.0523 177.142 24.5 176.59 24.5H176.109C175.557 24.5 175.109 24.0523 175.109 23.5V17.5371C175.109 17.1002 174.755 16.7461 174.318 16.7461C173.881 16.7461 173.527 16.3919 173.527 15.9551V15.6367C173.527 15.0844 173.975 14.6367 174.527 14.6367H176.59Z" fill="#6E7D60"/>
<path d="M204.193 11.4141C204.877 11.4141 205.359 12.0855 205.141 12.7337L201.401 23.8196C201.264 24.2262 200.883 24.5 200.454 24.5H200.009C199.583 24.5 199.203 24.2297 199.064 23.8267L197.332 18.8159C197.021 17.9182 195.752 17.9182 195.442 18.8159L193.709 23.8267C193.57 24.2297 193.191 24.5 192.764 24.5H192.323C191.892 24.5 191.51 24.2244 191.374 23.8158L187.684 12.7299C187.469 12.0824 187.95 11.4141 188.633 11.4141H189.583C190.027 11.4141 190.418 11.7067 190.543 12.1328L191.856 16.6111C192.131 17.5512 193.454 17.5754 193.764 16.646L195.28 12.0978C195.416 11.6895 195.798 11.4141 196.229 11.4141H196.6C197.032 11.4141 197.415 11.6915 197.55 12.1019L199.042 16.6422C199.348 17.5729 200.671 17.5544 200.951 16.6155L202.287 12.1286C202.413 11.7047 202.803 11.4141 203.246 11.4141H204.193Z" fill="#6E7D60"/>
<path d="M212.211 14.3828C212.745 14.3828 213.285 14.5065 213.832 14.7539C214.114 14.8813 214.371 15.0312 214.605 15.2035C214.83 15.3703 215.199 15.2215 215.199 14.9408C215.199 14.7728 215.335 14.6367 215.503 14.6367H216.68C217.232 14.6367 217.68 15.0844 217.68 15.6367V23.5C217.68 24.0523 217.232 24.5 216.68 24.5H215.533C215.349 24.5 215.199 24.3507 215.199 24.1665C215.199 23.8199 214.639 23.6438 214.383 23.8773C214.249 23.9995 214.104 24.1159 213.949 24.2266C213.402 24.6042 212.764 24.793 212.035 24.793C211.241 24.793 210.505 24.5911 209.828 24.1875C209.164 23.7839 208.63 23.1979 208.227 22.4297C207.823 21.6615 207.621 20.7305 207.621 19.6367C207.621 18.543 207.823 17.6055 208.227 16.8242C208.643 16.043 209.197 15.444 209.887 15.0273C210.59 14.5977 211.365 14.3828 212.211 14.3828ZM212.719 16.8047C212.198 16.8047 211.749 16.9414 211.371 17.2148C211.007 17.4753 210.72 17.8203 210.512 18.25C210.303 18.6797 210.199 19.1419 210.199 19.6367C210.199 20.3789 210.421 21.0104 210.863 21.5312C211.319 22.0521 211.918 22.3125 212.66 22.3125C213.103 22.3125 213.513 22.1953 213.891 21.9609C214.281 21.7266 214.594 21.401 214.828 20.9844C215.076 20.5547 215.199 20.0404 215.199 19.4414V18.4286C215.199 18.1757 215.107 17.9287 214.92 17.758C214.647 17.508 214.356 17.3009 214.047 17.1367C213.643 16.9154 213.201 16.8047 212.719 16.8047Z" fill="#6E7D60"/>
<path d="M224.207 10.4375C224.759 10.4375 225.207 10.8852 225.207 11.4375V23.5C225.207 24.0523 224.759 24.5 224.207 24.5H223.727C223.174 24.5 222.727 24.0523 222.727 23.5V11.4375C222.727 10.8852 223.174 10.4375 223.727 10.4375H224.207Z" fill="#6E7D60"/>
<path d="M231.715 10.4375C232.267 10.4375 232.715 10.8852 232.715 11.4375V16.4581C232.715 17.3705 233.836 17.8063 234.452 17.1334L236.441 14.9614C236.63 14.7545 236.898 14.6367 237.179 14.6367H237.437C238.327 14.6367 238.774 15.7116 238.146 16.3422L236.216 18.2809C235.857 18.6415 235.826 19.2142 236.144 19.6114L238.757 22.875C239.282 23.5297 238.816 24.5 237.977 24.5H237.429C237.117 24.5 236.823 24.3541 236.633 24.1057L234.639 21.4851C234.272 21.0032 233.564 20.9554 233.136 21.3837L233.008 21.5118C232.82 21.6993 232.715 21.9537 232.715 22.2189V23.5C232.715 24.0523 232.267 24.5 231.715 24.5H231.234C230.682 24.5 230.234 24.0523 230.234 23.5V11.4375C230.234 10.8852 230.682 10.4375 231.234 10.4375H231.715Z" fill="#6E7D60"/>
<path d="M41.51 20.1979C42.0623 20.1979 42.51 20.6456 42.51 21.1979V23.0039C42.51 23.5562 42.0623 24.0039 41.51 24.0039H34.358C33.8058 24.0039 33.358 23.5562 33.358 23.0039V21.1979C33.358 20.6456 33.8058 20.1979 34.358 20.1979H41.51ZM30.674 26.3919C30.674 26.9442 31.1218 27.3919 31.674 27.3919H32.918C33.161 27.3919 33.358 27.1949 33.358 26.9519C33.358 26.7089 33.555 26.5119 33.798 26.5119H42.081C42.318 26.5119 42.51 26.704 42.51 26.9409C42.51 27.1778 42.7021 27.3699 42.939 27.3699H44.326C44.8783 27.3699 45.326 26.9222 45.326 26.3699V18.7119C45.326 18.1596 44.8783 17.7119 44.326 17.7119H31.674C31.1218 17.7119 30.674 18.1596 30.674 18.7119V26.3919ZM41.054 9.99629C40.6368 10.3103 40.5904 10.9063 40.9775 11.2566C41.5074 11.736 41.2048 12.614 40.4909 12.6446C39.2586 12.6976 38.0327 12.7493 36.8359 12.7971C36.0239 12.8296 35.5124 11.9273 35.938 11.235C36.4414 10.4161 36.9386 9.56854 37.406 8.72995C37.7094 8.18569 37.4328 7.50479 36.8395 7.31425L35.8625 7.00048C35.3581 6.83847 34.8162 7.0983 34.6069 7.585C33.9196 9.18317 32.973 10.9867 32.0151 12.5307C31.8392 12.8142 31.5297 12.9852 31.196 12.9928C30.562 13.0073 29.9542 13.026 29.3788 13.0427C28.8124 13.0591 28.3694 13.5397 28.4024 14.1054L28.439 14.732C28.4707 15.2753 28.9297 15.6936 29.4735 15.6729C33.4012 15.5232 38.819 15.3045 44.0281 15.0325C44.3462 15.0159 44.6546 15.1506 44.8504 15.4018C45.0179 15.6168 45.1746 15.8269 45.3191 16.0311C45.6721 16.5295 46.3773 16.6741 46.8618 16.3024L47.5038 15.8101C47.9056 15.5019 48.0151 14.9404 47.7186 14.5299C46.5688 12.9388 44.6496 11.0627 42.8926 9.56866C42.5416 9.27016 42.0311 9.26084 41.6629 9.53794L41.054 9.99629Z" fill="#6E7D60"/>
<path d="M65.346 7.86691C65.346 7.52063 65.0653 7.23991 64.719 7.23991H62.145C61.7988 7.23991 61.518 7.52063 61.518 7.86691C61.518 8.2132 61.7988 8.49391 62.145 8.49391H64.719C65.0653 8.49391 65.346 8.2132 65.346 7.86691ZM55.4701 10.0292C55.7842 9.64102 55.7614 9.08124 55.3704 8.77068C54.847 8.35503 54.1878 7.91737 53.5619 7.54062C53.1526 7.29428 52.6286 7.39364 52.3215 7.75949L52.1075 8.01438C51.7121 8.48542 51.8319 9.19853 52.3376 9.54868C52.7662 9.84551 53.1914 10.1652 53.5633 10.4762C54.0442 10.8783 54.7989 10.8589 55.1931 10.3716L55.4701 10.0292ZM55.0476 15.6801C55.3611 15.2725 55.3128 14.694 54.8955 14.3936C54.348 13.9994 53.6766 13.5933 53.0344 13.2517C52.6225 13.0327 52.118 13.1544 51.8304 13.5217L51.6229 13.7867C51.2409 14.2745 51.3899 14.9895 51.9137 15.3205C52.3515 15.5971 52.7897 15.898 53.1731 16.1908C53.6636 16.5652 54.402 16.5194 54.7782 16.0303L55.0476 15.6801ZM52.724 26.597C53.2472 26.8909 53.9099 26.6613 54.1287 26.1026C54.7805 24.4377 55.4252 22.5977 55.9739 20.8319C56.1064 20.4053 55.9343 19.9441 55.5577 19.7037L55.2246 19.4911C54.6703 19.1373 53.9309 19.4055 53.7171 20.0273C53.0985 21.8264 52.3814 23.6248 51.7759 25.0097C51.5669 25.4875 51.7485 26.0488 52.2031 26.3043L52.724 26.597ZM63.96 16.1059C63.96 16.3732 63.7433 16.5899 63.476 16.5899H63.344C63.0767 16.5899 62.86 16.3732 62.86 16.1059C62.86 15.8386 63.0767 15.6219 63.344 15.6219H63.476C63.7433 15.6219 63.96 15.8386 63.96 16.1059ZM57.712 17.6028C57.712 17.7957 57.8684 17.9539 58.0612 17.9539H58.537C58.9927 17.9539 59.362 17.5845 59.362 17.1289V13.9193C59.362 13.7245 59.5099 13.5616 59.7038 13.5428L59.7945 13.5341C59.9362 13.5203 60.0686 13.633 60.0892 13.7739C60.1151 13.9508 60.2926 14.0445 60.4602 13.9824L60.8605 13.8341C61.1295 13.7345 61.2953 13.462 61.235 13.1816C61.1328 12.707 60.9668 12.1514 60.7677 11.6418C60.6536 11.3499 60.3249 11.215 60.03 11.3211L59.6938 11.4421C59.5597 11.4904 59.4882 11.6316 59.5348 11.7663C59.591 11.9289 59.472 12.106 59.3 12.11C59.0735 12.1153 58.9448 11.8469 59.091 11.6739C59.521 11.1652 59.9531 10.6196 60.3657 10.0855C60.4827 9.93401 60.726 10.0164 60.726 10.2078C60.726 10.3183 60.8156 10.4079 60.9261 10.4079H65.9083C65.9501 10.4079 65.984 10.374 65.984 10.3322C65.984 10.2672 66.0602 10.2326 66.1084 10.2762C66.42 10.5578 66.7188 10.8678 66.9734 11.1639C67.1729 11.3961 67.1576 11.7391 66.9588 11.9719C66.9482 11.9843 66.9377 11.9966 66.9272 12.0089C66.8038 12.1533 66.6241 12.2362 66.4342 12.2403C66.037 12.2487 65.7308 12.5933 65.7693 12.9888L65.7794 13.0932C65.82 13.5102 66.1827 13.8207 66.601 13.7964L67.3723 13.7515C67.574 13.7398 67.744 13.9002 67.744 14.1023C67.744 14.3282 67.5339 14.4954 67.3137 14.4446L66.7825 14.322C66.5248 14.2626 66.2692 14.4256 66.2065 14.6825C66.1835 14.777 66.1595 14.8719 66.1344 14.9668C66.0242 15.3844 65.544 15.2946 65.544 14.8627C65.544 14.638 65.3619 14.4559 65.1373 14.4559H62.342C61.7898 14.4559 61.342 14.9036 61.342 15.4559V16.7559C61.342 17.3082 61.7898 17.7559 62.342 17.7559H65.2581C65.416 17.7559 65.544 17.6279 65.544 17.4699C65.544 17.263 65.7564 17.1261 65.9406 17.2205C66.1099 17.3072 66.2804 17.401 66.4296 17.4907C66.5927 17.5888 66.7887 17.5856 66.8712 17.414C67.0299 17.0835 67.744 17.1478 67.744 17.5144V17.6299C67.744 17.8089 67.8891 17.9539 68.0681 17.9539H68.58C69.0418 17.9539 69.416 17.5796 69.416 17.1179V14.0863C69.416 13.8355 69.6091 13.6271 69.8591 13.6078L70.0598 13.5924C70.1827 13.5829 70.2982 13.6817 70.3252 13.802C70.361 13.9615 70.5319 14.0398 70.6819 13.9748L71.1968 13.7517C71.4919 13.6238 71.6573 13.3052 71.5633 12.9976C71.4171 12.5188 71.2045 11.974 70.9687 11.4765C70.8201 11.163 70.4505 11.0334 70.1288 11.1632L69.7379 11.3209C69.5763 11.3861 69.5013 11.5684 69.5753 11.7262C69.6664 11.9205 69.5285 12.1503 69.3139 12.1542L69.2913 12.1546C69.0156 12.1596 68.8666 11.83 69.0491 11.6233C69.4848 11.1299 69.9242 10.6072 70.3426 10.0971C70.6423 9.73174 70.5363 9.18529 70.1241 8.95419C69.757 8.74838 69.2923 8.87849 69.0605 9.22976C68.9088 9.45956 68.7428 9.69768 68.5671 9.94096C68.4508 10.1019 68.2238 10.1163 68.0866 9.97282C67.9762 9.85736 67.9478 9.67111 68.0392 9.54013C68.3052 9.15914 68.5835 8.73117 68.8662 8.29959C69.1194 7.91321 68.978 7.38934 68.5624 7.18767C68.1755 6.99993 67.7095 7.17075 67.5208 7.55714C67.3413 7.92459 67.1366 8.32332 66.9342 8.69856C66.886 8.78775 66.7695 8.81213 66.6892 8.75034C66.616 8.69405 66.5109 8.70866 66.4559 8.78277L66.1516 9.19231C66.0982 9.2642 65.984 9.22643 65.984 9.13688C65.984 9.08554 65.9424 9.04391 65.8911 9.04391H60.8637C60.7877 9.04391 60.726 9.10556 60.726 9.18161C60.726 9.28712 60.6123 9.35343 60.5205 9.30142L59.8959 8.94753C59.6264 8.79478 59.2835 8.8917 59.1187 9.15403C58.99 9.35883 58.8491 9.57194 58.7014 9.79336C58.5914 9.95834 58.3501 9.9828 58.2021 9.85087C58.0962 9.75657 58.0757 9.59705 58.1529 9.47814C58.4043 9.09077 58.675 8.66393 58.9476 8.22821C59.1836 7.85093 59.0435 7.35312 58.6467 7.15173C58.2501 6.95047 57.7662 7.13116 57.5788 7.53449C57.4096 7.89864 57.2182 8.28206 57.0236 8.63783C56.9676 8.74026 56.8378 8.77358 56.7393 8.71089C56.6444 8.65049 56.5198 8.67946 56.4593 8.77432L56.1524 9.25541C55.9281 9.60714 56.0153 10.0713 56.3342 10.3403C56.5788 10.5467 56.8216 10.7664 57.0471 10.9855C57.3123 11.243 57.3262 11.6616 57.0924 11.9479C56.9522 12.1196 56.749 12.2161 56.5275 12.2233L56.3772 12.2283C55.9225 12.2432 55.577 12.6422 55.6272 13.0943C55.6735 13.5108 56.0404 13.8171 56.4583 13.7871C56.7356 13.7673 57.0216 13.7459 57.3128 13.7214C57.5271 13.7033 57.712 13.8717 57.712 14.0867C57.712 14.3209 57.4946 14.4945 57.2662 14.4426L56.9139 14.3625C56.5556 14.2811 56.2027 14.5117 56.1137 14.8683C55.9905 15.3623 55.8359 15.8549 55.6394 16.3066C55.4656 16.7064 55.6249 17.206 56.0149 17.4008C56.1228 17.4547 56.2283 17.5091 56.3259 17.5612C56.4972 17.6525 56.692 17.6364 56.7806 17.4636C56.9657 17.1022 57.712 17.1967 57.712 17.6028ZM70.2119 14.391C69.8214 14.5081 69.6184 14.937 69.7599 15.3194C69.924 15.7628 70.0784 16.2263 70.1975 16.651C70.3138 17.0657 70.7523 17.3251 71.1609 17.1889C71.5059 17.074 71.7061 16.7147 71.5991 16.3672C71.4469 15.873 71.2435 15.3093 71.0356 14.784C70.9066 14.4578 70.5478 14.2902 70.2119 14.391ZM61.364 13.2679C61.364 13.596 61.63 13.8619 61.958 13.8619H64.95C65.2781 13.8619 65.544 13.596 65.544 13.2679C65.544 12.9399 65.2781 12.6739 64.95 12.6739H61.958C61.63 12.6739 61.364 12.9399 61.364 13.2679ZM65.544 11.5739C65.544 11.2459 65.2781 10.9799 64.95 10.9799H61.958C61.63 10.9799 61.364 11.2459 61.364 11.5739C61.364 11.902 61.63 12.1679 61.958 12.1679H64.95C65.2781 12.1679 65.544 11.902 65.544 11.5739ZM60.6945 16.7767C61.0246 16.6831 61.2303 16.3545 61.1544 16.02C61.0721 15.6569 60.9685 15.2524 60.8578 14.8697C60.764 14.5457 60.4313 14.3591 60.1025 14.4341C59.7361 14.5177 59.5152 14.8916 59.6056 15.2565C59.6864 15.5823 59.7619 15.9176 59.8245 16.2298C59.9043 16.6274 60.3044 16.8872 60.6945 16.7767ZM60.1762 22.6619C59.9533 22.6619 59.7903 22.4515 59.846 22.2357C59.8849 22.0851 60.0207 21.9799 60.1762 21.9799H68.658C69.2103 21.9799 69.658 21.5322 69.658 20.9799V19.3279C69.658 18.7756 69.2103 18.3279 68.658 18.3279H57.921C57.514 18.3279 57.184 18.6579 57.184 19.0649C57.184 19.4719 57.514 19.8019 57.921 19.8019H66.897C67.0854 19.8019 67.238 19.9546 67.238 20.1429C67.238 20.3312 67.0854 20.4839 66.897 20.4839H58.669C58.19 20.4839 57.7796 20.8239 57.6766 21.2917C57.5196 22.0041 57.3331 22.7452 57.1384 23.421C56.9625 24.0321 57.3597 24.6756 57.9902 24.7581L58.7718 24.8604C58.974 24.8868 59.1643 24.7736 59.2241 24.5786C59.2793 24.3988 59.4468 24.2679 59.6349 24.2679H66.6566C67.3137 24.2679 67.8795 25.0254 67.348 25.4119C67.128 25.5659 66.864 25.5879 66.424 25.5879C66.0747 25.5879 65.3615 25.579 64.5493 25.5387C63.9747 25.5102 63.5619 26.2393 63.7078 26.7958C63.7955 27.1303 64.0678 27.3566 64.4135 27.3661C65.5565 27.3975 66.6171 27.4106 67.216 27.3919C68.096 27.3479 68.712 27.2379 69.262 26.8199C69.856 26.3359 70.252 25.3679 70.604 23.6079C70.7461 23.1106 70.2969 22.6619 69.7797 22.6619H60.1762Z" fill="#6E7D60"/>
<path d="M85.916 22.0999C85.916 21.5476 86.3638 21.0999 86.916 21.0999H91.934C92.4863 21.0999 92.934 20.6522 92.934 20.0999V19.7679C92.934 19.2156 92.4863 18.7679 91.934 18.7679H86.916C86.3638 18.7679 85.916 18.3202 85.916 17.7679V17.1059C85.916 16.5536 86.3638 16.1059 86.916 16.1059H93.408C93.9603 16.1059 94.408 15.6582 94.408 15.1059V14.6639C94.408 14.1116 93.9603 13.6639 93.408 13.6639H86.916C86.3638 13.6639 85.916 13.2162 85.916 12.6639V12.5299C85.916 11.9776 86.3638 11.5299 86.916 11.5299H91.692C92.2443 11.5299 92.692 11.0822 92.692 10.5299V10.1319C92.692 9.57963 92.2443 9.13191 91.692 9.13191H86.916C86.3638 9.13191 85.916 8.6842 85.916 8.13191V7.88791C85.916 7.33563 85.4683 6.88791 84.916 6.88791H84.232C83.6798 6.88791 83.232 7.33563 83.232 7.88791V8.13191C83.232 8.6842 82.7843 9.13191 82.232 9.13191H77.852C77.2998 9.13191 76.852 9.57963 76.852 10.1319V10.5299C76.852 11.0822 77.2998 11.5299 77.852 11.5299H82.232C82.7843 11.5299 83.232 11.9776 83.232 12.5299V12.6639C83.232 13.2162 82.7843 13.6639 82.232 13.6639H75.916C75.3638 13.6639 74.916 14.1116 74.916 14.6639V15.1059C74.916 15.6582 75.3638 16.1059 75.916 16.1059H82.232C82.7843 16.1059 83.232 16.5536 83.232 17.1059V21.8896C83.232 22.6359 82.4446 23.105 81.8763 22.6212C81.2437 22.0826 80.6881 21.4045 80.2325 20.5525C80.1191 20.3405 80.0997 20.0925 80.1591 19.8596C80.2873 19.3567 80.3987 18.8501 80.4961 18.3488C80.6051 17.7882 80.205 17.2618 79.6375 17.1973L78.9813 17.1226C78.4272 17.0595 77.9312 17.462 77.8496 18.0136C77.5009 20.3698 76.7138 22.9255 75.203 24.7274C74.7528 25.2642 74.7958 26.1573 75.3207 26.6214C75.3631 26.6589 75.4051 26.6966 75.4465 26.7342C75.8441 27.0953 76.462 27.1515 76.8355 26.7655C77.4194 26.1621 77.9174 25.461 78.3497 24.6926C78.7362 24.0058 79.7478 23.8933 80.3176 24.4375C82.5626 26.5817 85.5946 27.1279 89.282 27.1279H93.2391C93.7243 27.1279 94.1349 26.7948 94.2752 26.3303C94.5049 25.5695 93.9481 24.6125 93.1534 24.6187C91.737 24.6298 90.0871 24.6344 89.436 24.6199C88.507 24.6199 87.603 24.5824 86.7429 24.479C86.2624 24.4213 85.916 24.0038 85.916 23.5198V22.0999Z" fill="#6E7D60"/>
<path d="M109.236 22.0999C109.236 21.5476 109.684 21.0999 110.236 21.0999H115.254C115.806 21.0999 116.254 20.6522 116.254 20.0999V19.7679C116.254 19.2156 115.806 18.7679 115.254 18.7679H110.236C109.684 18.7679 109.236 18.3202 109.236 17.7679V17.1059C109.236 16.5536 109.684 16.1059 110.236 16.1059H116.728C117.28 16.1059 117.728 15.6582 117.728 15.1059V14.6639C117.728 14.1116 117.28 13.6639 116.728 13.6639H110.236C109.684 13.6639 109.236 13.2162 109.236 12.6639V12.5299C109.236 11.9776 109.684 11.5299 110.236 11.5299H115.012C115.564 11.5299 116.012 11.0822 116.012 10.5299V10.1319C116.012 9.57963 115.564 9.13191 115.012 9.13191H110.236C109.684 9.13191 109.236 8.6842 109.236 8.13191V7.88791C109.236 7.33563 108.788 6.88791 108.236 6.88791H107.552C107 6.88791 106.552 7.33563 106.552 7.88791V8.13191C106.552 8.6842 106.104 9.13191 105.552 9.13191H101.172C100.62 9.13191 100.172 9.57963 100.172 10.1319V10.5299C100.172 11.0822 100.62 11.5299 101.172 11.5299H105.552C106.104 11.5299 106.552 11.9776 106.552 12.5299V12.6639C106.552 13.2162 106.104 13.6639 105.552 13.6639H99.236C98.6838 13.6639 98.236 14.1116 98.236 14.6639V15.1059C98.236 15.6582 98.6838 16.1059 99.236 16.1059H105.552C106.104 16.1059 106.552 16.5536 106.552 17.1059V21.8896C106.552 22.6359 105.765 23.105 105.196 22.6212C104.564 22.0826 104.008 21.4045 103.552 20.5525C103.439 20.3405 103.42 20.0925 103.479 19.8596C103.607 19.3567 103.719 18.8501 103.816 18.3488C103.925 17.7882 103.525 17.2618 102.958 17.1973L102.301 17.1226C101.747 17.0595 101.251 17.462 101.17 18.0136C100.821 20.3698 100.034 22.9255 98.523 24.7274C98.0728 25.2642 98.1158 26.1573 98.6407 26.6214C98.6831 26.6589 98.7251 26.6966 98.7665 26.7342C99.1641 27.0953 99.782 27.1515 100.156 26.7655C100.739 26.1621 101.237 25.461 101.67 24.6926C102.056 24.0058 103.068 23.8933 103.638 24.4375C105.883 26.5817 108.915 27.1279 112.602 27.1279H116.559C117.044 27.1279 117.455 26.7948 117.595 26.3303C117.825 25.5695 117.268 24.6125 116.473 24.6187C115.057 24.6298 113.407 24.6344 112.756 24.6199C111.827 24.6199 110.923 24.5824 110.063 24.479C109.582 24.4213 109.236 24.0038 109.236 23.5198V22.0999Z" fill="#6E7D60"/>
<path d="M131.28 14.3239C129.74 14.3239 128.464 15.5999 128.464 17.1399C128.464 18.6799 129.74 19.9559 131.28 19.9559C132.82 19.9559 134.096 18.6799 134.096 17.1399C134.096 15.5999 132.82 14.3239 131.28 14.3239Z" fill="#6E7D60"/>
</svg>
